<?xml version="1.0" encoding="UTF-8" standalone="no"?>
<svg
   xmlns:osb="http://www.openswatchbook.org/uri/2009/osb"
   xmlns:dc="http://purl.org/dc/elements/1.1/"
   xmlns:cc="http://creativecommons.org/ns#"
   xmlns:rdf="http://www.w3.org/1999/02/22-rdf-syntax-ns#"
   xmlns:svg="http://www.w3.org/2000/svg"
   xmlns="http://www.w3.org/2000/svg"
   xmlns:sodipodi="http://sodipodi.sourceforge.net/DTD/sodipodi-0.dtd"
   xmlns:inkscape="http://www.inkscape.org/namespaces/inkscape"
   width="30.48mm"
   height="128.5mm"
   viewBox="0 0 30.479999 128.5"
   version="1.1"
   id="svg8"
   inkscape:version="1.0.1 (3bc2e813f5, 2020-09-07)"
   sodipodi:docname="Advance.svg">
  <defs
     id="defs2">
    <marker
       style="overflow:visible"
       id="Arrow1Sstart"
       refX="0.0"
       refY="0.0"
       orient="auto"
       inkscape:stockid="Arrow1Sstart"
       inkscape:isstock="true">
      <path
         transform="scale(0.2) translate(6,0)"
         style="fill-rule:evenodd;stroke:#000000;stroke-width:1pt;stroke-opacity:1;fill:#ffffff;fill-opacity:1"
         d="M 0.0,0.0 L 5.0,-5.0 L -12.5,0.0 L 5.0,5.0 L 0.0,0.0 z "
         id="path2950" />
    </marker>
    <marker
       style="overflow:visible"
       id="Tail"
       refX="0.0"
       refY="0.0"
       orient="auto"
       inkscape:stockid="Tail"
       inkscape:isstock="true">
      <g
         transform="scale(-1.2)"
         id="g2986"
         style="stroke:#000000;stroke-opacity:1;fill:#ffffff;fill-opacity:1">
        <path
           style="fill:#ffffff;fill-rule:evenodd;stroke:#000000;stroke-width:0.8;stroke-linecap:round;stroke-opacity:1;fill-opacity:1"
           d="M -3.8048674,-3.9585227 L 0.54352094,0"
           id="path2974" />
        <path
           style="fill:#ffffff;fill-rule:evenodd;stroke:#000000;stroke-width:0.8;stroke-linecap:round;stroke-opacity:1;fill-opacity:1"
           d="M -1.2866832,-3.9585227 L 3.0617053,0"
           id="path2976" />
        <path
           style="fill:#ffffff;fill-rule:evenodd;stroke:#000000;stroke-width:0.8;stroke-linecap:round;stroke-opacity:1;fill-opacity:1"
           d="M 1.3053582,-3.9585227 L 5.6537466,0"
           id="path2978" />
        <path
           style="fill:#ffffff;fill-rule:evenodd;stroke:#000000;stroke-width:0.8;stroke-linecap:round;stroke-opacity:1;fill-opacity:1"
           d="M -3.8048674,4.1775838 L 0.54352094,0.21974226"
           id="path2980" />
        <path
           style="fill:#ffffff;fill-rule:evenodd;stroke:#000000;stroke-width:0.8;stroke-linecap:round;stroke-opacity:1;fill-opacity:1"
           d="M -1.2866832,4.1775838 L 3.0617053,0.21974226"
           id="path2982" />
        <path
           style="fill:#ffffff;fill-rule:evenodd;stroke:#000000;stroke-width:0.8;stroke-linecap:round;stroke-opacity:1;fill-opacity:1"
           d="M 1.3053582,4.1775838 L 5.6537466,0.21974226"
           id="path2984" />
      </g>
    </marker>
    <marker
       style="overflow:visible"
       id="DiamondL"
       refX="0.0"
       refY="0.0"
       orient="auto"
       inkscape:stockid="DiamondL"
       inkscape:isstock="true">
      <path
         transform="scale(0.8)"
         style="fill-rule:evenodd;stroke:#000000;stroke-width:1pt;stroke-opacity:1;fill:#ffffff;fill-opacity:1"
         d="M 0,-7.0710768 L -7.0710894,0 L 0,7.0710589 L 7.0710462,0 L 0,-7.0710768 z "
         id="path3017" />
    </marker>
    <marker
       style="overflow:visible"
       id="Arrow2Lstart"
       refX="0.0"
       refY="0.0"
       orient="auto"
       inkscape:stockid="Arrow2Lstart"
       inkscape:isstock="true">
      <path
         transform="scale(1.1) translate(1,0)"
         d="M 8.7185878,4.0337352 L -2.2072895,0.016013256 L 8.7185884,-4.0017078 C 6.9730900,-1.6296469 6.9831476,1.6157441 8.7185878,4.0337352 z "
         style="fill-rule:evenodd;stroke-width:0.625;stroke-linejoin:round;stroke:#000000;stroke-opacity:1;fill:#ffffff;fill-opacity:1"
         id="path2956" />
    </marker>
    <marker
       style="overflow:visible"
       id="Arrow1Lstart"
       refX="0.0"
       refY="0.0"
       orient="auto"
       inkscape:stockid="Arrow1Lstart"
       inkscape:isstock="true">
      <path
         transform="scale(0.8) translate(12.5,0)"
         style="fill-rule:evenodd;stroke:#000000;stroke-width:1pt;stroke-opacity:1;fill:#ffffff;fill-opacity:1"
         d="M 0.0,0.0 L 5.0,-5.0 L -12.5,0.0 L 5.0,5.0 L 0.0,0.0 z "
         id="path2938" />
    </marker>
    <linearGradient
       id="linearGradient2900"
       osb:paint="solid">
      <stop
         style="stop-color:#cc801a;stop-opacity:1;"
         offset="0"
         id="stop2898" />
    </linearGradient>
    <linearGradient
       id="linearGradient950"
       osb:paint="solid">
      <stop
         style="stop-color:#000000;stop-opacity:1;"
         offset="0"
         id="stop948" />
    </linearGradient>
    <rect
       x="5.0800004"
       y="2.6458333"
       width="16.952896"
       height="11.259873"
       id="rect3010" />
    <rect
       x="12.095238"
       y="30.238094"
       width="15.119048"
       height="13.229167"
       id="rect841" />
    <rect
       x="13.796131"
       y="31.938988"
       width="18.520832"
       height="7.7485118"
       id="rect835" />
    <rect
       x="12.095238"
       y="30.238094"
       width="15.119048"
       height="13.229167"
       id="rect844" />
    <rect
       x="12.095238"
       y="30.238094"
       width="15.119048"
       height="13.229167"
       id="rect852" />
    <rect
       x="12.095238"
       y="30.238094"
       width="15.119048"
       height="13.229167"
       id="rect886" />
    <rect
       x="12.095238"
       y="30.238094"
       width="15.119048"
       height="13.229167"
       id="rect898" />
    <rect
       x="12.095238"
       y="30.238094"
       width="15.119048"
       height="13.229167"
       id="rect946" />
    <rect
       x="12.095238"
       y="30.238094"
       width="15.119048"
       height="13.229167"
       id="rect960" />
    <rect
       x="12.095238"
       y="30.238094"
       width="15.119048"
       height="13.229167"
       id="rect978" />
    <rect
       x="12.095238"
       y="30.238094"
       width="15.119048"
       height="13.229167"
       id="rect990" />
    <rect
       x="12.095238"
       y="30.238094"
       width="15.119048"
       height="13.229167"
       id="rect1002" />
    <rect
       x="12.095238"
       y="30.238094"
       width="15.119048"
       height="13.229167"
       id="rect2974" />
    <rect
       x="12.095238"
       y="30.238094"
       width="15.119048"
       height="13.229167"
       id="rect2988" />
    <rect
       x="12.095238"
       y="30.238094"
       width="15.119048"
       height="13.229167"
       id="rect3002" />
    <rect
       x="5.0800004"
       y="2.6458333"
       width="21.175196"
       height="14.10025"
       id="rect3018" />
    <rect
       x="5.0800004"
       y="2.6458333"
       width="16.952896"
       height="11.259873"
       id="rect3026" />
    <rect
       x="5.0800004"
       y="2.6458333"
       width="16.952896"
       height="11.259873"
       id="rect3034" />
    <rect
       x="5.0800004"
       y="2.6458333"
       width="16.952896"
       height="11.259873"
       id="rect3042" />
    <rect
       x="5.0800004"
       y="2.6458333"
       width="16.952896"
       height="11.259873"
       id="rect3052" />
    <rect
       x="5.0800004"
       y="2.6458333"
       width="16.952896"
       height="11.259873"
       id="rect3060" />
    <rect
       x="5.0800004"
       y="2.6458333"
       width="36.01067"
       height="16.776888"
       id="rect3066" />
    <rect
       x="12.095238"
       y="30.238094"
       width="15.119048"
       height="13.229167"
       id="rect3082" />
    <rect
       x="12.095238"
       y="30.238094"
       width="15.119048"
       height="13.229167"
       id="rect3096" />
    <rect
       x="12.095238"
       y="30.238094"
       width="15.119048"
       height="13.229167"
       id="rect912" />
  </defs>
  <sodipodi:namedview
     id="base"
     pagecolor="#ffffff"
     bordercolor="#666666"
     borderopacity="1.0"
     inkscape:pageopacity="0.0"
     inkscape:pageshadow="2"
     inkscape:zoom="2.8284271"
     inkscape:cx="2.5288989"
     inkscape:cy="230.6273"
     inkscape:document-units="mm"
     inkscape:current-layer="layer2"
     inkscape:document-rotation="0"
     showgrid="true"
     inkscape:window-width="3440"
     inkscape:window-height="1377"
     inkscape:window-x="-8"
     inkscape:window-y="735"
     inkscape:window-maximized="1"
     inkscape:snap-grids="true">
    <inkscape:grid
       type="xygrid"
       id="grid856"
       units="mm"
       empspacing="5"
       spacingx="0.25400001" />
  </sodipodi:namedview>
  <metadata
     id="metadata5">
    <rdf:RDF>
      <cc:Work
         rdf:about="">
        <dc:format>image/svg+xml</dc:format>
        <dc:type
           rdf:resource="http://purl.org/dc/dcmitype/StillImage" />
        <dc:title></dc:title>
      </cc:Work>
    </rdf:RDF>
  </metadata>
  <g
     inkscape:groupmode="layer"
     id="layer4"
     inkscape:label="Layer 3"
     style="display:none">
    <g
       id="g2936"
       transform="translate(1.964431,-0.12862345)">
      <path
         sodipodi:type="star"
         style="fill:#adadad;fill-opacity:1;stroke:none;stroke-width:0.0550724;stroke-miterlimit:4;stroke-dasharray:none;stroke-opacity:1"
         id="path2904"
         sodipodi:sides="56"
         sodipodi:cx="4.9609227"
         sodipodi:cy="48.925846"
         sodipodi:r1="2.8222446"
         sodipodi:r2="2.9038763"
         sodipodi:arg1="2.5216713"
         sodipodi:arg2="2.5689114"
         inkscape:flatsided="false"
         inkscape:rounded="0.13128056"
         inkscape:randomized="0"
         d="m 2.6638296,50.565489 c -0.012196,-0.01677 -0.1323909,-0.04854 -0.1434728,-0.06607 -0.014247,-0.02253 -0.012498,-0.178254 -0.025665,-0.201434 -0.010242,-0.01803 -0.1261235,-0.06306 -0.1351733,-0.08172 -0.011634,-0.02398 0.00754,-0.178533 -0.00295,-0.203041 -0.00816,-0.01906 -0.11827,-0.07678 -0.125174,-0.09634 -0.00888,-0.02514 0.02748,-0.176566 0.019802,-0.202094 -0.00597,-0.01986 -0.1089293,-0.08954 -0.1136006,-0.109747 -0.00601,-0.02597 0.047077,-0.17238 0.042305,-0.198607 -0.00371,-0.0204 -0.098219,-0.101177 -0.1005985,-0.121776 -0.00306,-0.02648 0.066081,-0.166025 0.064275,-0.192622 -0.0014,-0.02069 -0.086273,-0.111538 -0.086331,-0.132274 -7.53e-5,-0.02666 0.084254,-0.157582 0.085438,-0.184214 9.208e-4,-0.02072 -0.073242,-0.120496 -0.070978,-0.141108 0.00291,-0.0265 0.1013681,-0.147158 0.1055261,-0.17349 0.00323,-0.02048 -0.05929,-0.127938 -0.054733,-0.148168 0.00586,-0.02601 0.1172071,-0.134882 0.1242872,-0.160583 0.00551,-0.01999 -0.044593,-0.133773 -0.037799,-0.153365 0.00873,-0.02519 0.1315721,-0.120911 0.1414854,-0.145658 0.00771,-0.01925 -0.029335,-0.137924 -0.02039,-0.156632 0.011499,-0.02405 0.1442826,-0.10542 0.1569042,-0.128901 0.00982,-0.01826 -0.013708,-0.140342 -0.00272,-0.157931 0.014119,-0.02261 0.1551788,-0.0886 0.17035,-0.110522 0.011801,-0.01705 0.00209,-0.140994 0.014975,-0.157243 0.016562,-0.02089 0.1641233,-0.07067 0.1816535,-0.09075 0.013636,-0.01562 0.017865,-0.139873 0.032486,-0.154578 0.018797,-0.0189 0.1710039,-0.05185 0.1906725,-0.06985 0.015299,-0.014 0.033414,-0.136993 0.049589,-0.149968 0.020795,-0.01668 0.1757342,-0.03238 0.1972938,-0.04806 0.01677,-0.0122 0.048542,-0.132391 0.066069,-0.143473 0.022532,-0.01425 0.1782544,-0.0125 0.201434,-0.02567 0.01803,-0.01024 0.06306,-0.126124 0.081717,-0.135173 0.023985,-0.01163 0.1785329,0.0075 0.203041,-0.003 0.019064,-0.0082 0.076785,-0.11827 0.096338,-0.125174 0.025137,-0.0089 0.1765663,0.02748 0.2020946,0.0198 0.019857,-0.006 0.089544,-0.10893 0.1097471,-0.113601 0.025973,-0.006 0.1723794,0.04708 0.1986069,0.0423 0.020401,-0.0037 0.101177,-0.09822 0.1217763,-0.100598 0.026482,-0.0031 0.1660245,0.06608 0.1926214,0.06428 0.020689,-0.0014 0.1115378,-0.08627 0.1322741,-0.08633 0.026658,-7.5e-5 0.1575819,0.08425 0.1842137,0.08544 0.020716,9.21e-4 0.120496,-0.07324 0.1411084,-0.07098 0.026499,0.0029 0.1471576,0.101368 0.1734894,0.105527 0.020482,0.0032 0.1279388,-0.05929 0.1481682,-0.05473 0.026006,0.0059 0.1348826,0.117208 0.1605834,0.124288 0.019992,0.0055 0.1337727,-0.04459 0.1533647,-0.0378 0.025187,0.0087 0.1209115,0.131573 0.1456579,0.141486 0.019249,0.0077 0.1379244,-0.02933 0.1566325,-0.02039 0.024051,0.0115 0.1054199,0.144283 0.1289008,0.156905 0.018265,0.0098 0.1403416,-0.01371 0.1579306,-0.0027 0.022612,0.01412 0.088602,0.155179 0.1105225,0.17035 0.017051,0.0118 0.140994,0.0021 0.1572427,0.01497 0.020889,0.01656 0.070671,0.164123 0.090754,0.181653 0.015622,0.01364 0.1398733,0.01787 0.1545774,0.03249 0.018903,0.0188 0.05185,0.171004 0.069845,0.190672 0.013997,0.0153 0.1369935,0.03341 0.1499681,0.04959 0.01668,0.02079 0.032378,0.175734 0.048057,0.197293 0.012196,0.01677 0.1323909,0.04854 0.1434728,0.06607 0.014247,0.02253 0.012498,0.178254 0.025665,0.201434 0.010242,0.01803 0.1261235,0.06306 0.1351734,0.08172 0.011634,0.02398 -0.00754,0.178533 0.00295,0.203041 0.00816,0.01906 0.1182701,0.07679 0.125174,0.09634 0.00888,0.02514 -0.02748,0.176566 -0.019801,0.202094 0.00597,0.01986 0.1089293,0.08954 0.1136006,0.109748 0.00601,0.02597 -0.047077,0.172379 -0.042304,0.198606 0.00371,0.0204 0.098219,0.101177 0.1005985,0.121777 0.00306,0.02648 -0.066081,0.166024 -0.064275,0.192621 0.0014,0.02069 0.086273,0.111538 0.086331,0.132274 7.52e-5,0.02666 -0.084254,0.157582 -0.085438,0.184214 -9.207e-4,0.02072 0.073242,0.120496 0.070978,0.141108 -0.00291,0.0265 -0.101368,0.147158 -0.1055261,0.17349 -0.00323,0.02048 0.05929,0.127939 0.054733,0.148168 -0.00586,0.02601 -0.1172071,0.134883 -0.1242873,0.160583 -0.00551,0.01999 0.044593,0.133773 0.037799,0.153365 -0.00873,0.02519 -0.1315722,0.120911 -0.1414854,0.145658 -0.00771,0.01925 0.029335,0.137924 0.02039,0.156632 -0.011499,0.02405 -0.1442827,0.10542 -0.1569043,0.128901 -0.00982,0.01826 0.013708,0.140342 0.00272,0.157931 -0.014119,0.02261 -0.1551787,0.0886 -0.17035,0.110522 -0.011801,0.01705 -0.00209,0.140994 -0.014975,0.157243 -0.016562,0.02089 -0.1641233,0.07067 -0.1816534,0.09075 -0.013636,0.01562 -0.017865,0.139874 -0.032486,0.154578 -0.018797,0.0189 -0.171004,0.05185 -0.1906726,0.06985 -0.015299,0.014 -0.033413,0.136993 -0.049589,0.149968 -0.020795,0.01668 -0.1757341,0.03238 -0.1972938,0.04806 -0.01677,0.0122 -0.048542,0.132391 -0.066069,0.143473 -0.022532,0.01425 -0.1782544,0.0125 -0.201434,0.02567 -0.018031,0.01024 -0.06306,0.126124 -0.081717,0.135174 -0.023985,0.01163 -0.178533,-0.0075 -0.203041,0.0029 -0.019064,0.0082 -0.076785,0.11827 -0.096338,0.125174 -0.025137,0.0089 -0.1765664,-0.02748 -0.2020947,-0.0198 -0.019858,0.006 -0.089544,0.108929 -0.1097471,0.1136 -0.025973,0.006 -0.1723793,-0.04708 -0.1986069,-0.0423 -0.020401,0.0037 -0.1011769,0.09822 -0.1217762,0.100598 -0.026482,0.0031 -0.1660246,-0.06608 -0.1926215,-0.06428 -0.020689,0.0014 -0.1115378,0.08627 -0.132274,0.08633 -0.026658,7.5e-5 -0.1575819,-0.08425 -0.1842138,-0.08544 -0.020716,-9.2e-4 -0.1204959,0.07324 -0.1411083,0.07098 -0.026499,-0.0029 -0.1471576,-0.101368 -0.1734895,-0.105526 -0.020482,-0.0032 -0.1279388,0.05929 -0.1481681,0.05473 -0.026007,-0.0059 -0.1348827,-0.117207 -0.1605835,-0.124287 -0.019992,-0.0055 -0.1337727,0.04459 -0.1533646,0.0378 -0.025187,-0.0087 -0.1209115,-0.131572 -0.145658,-0.141486 -0.019249,-0.0077 -0.1379244,0.02933 -0.1566325,0.02039 -0.024051,-0.0115 -0.1054198,-0.144283 -0.1289007,-0.156905 -0.018265,-0.0098 -0.1403417,0.01371 -0.1579307,0.0027 -0.022612,-0.01412 -0.088602,-0.155178 -0.1105225,-0.17035 -0.017051,-0.0118 -0.140994,-0.0021 -0.1572427,-0.01497 -0.020889,-0.01656 -0.070671,-0.164123 -0.090754,-0.181653 -0.015622,-0.01364 -0.1398732,-0.01787 -0.1545773,-0.03249 -0.018903,-0.0188 -0.051851,-0.171004 -0.069845,-0.190672 -0.013997,-0.0153 -0.1369934,-0.03341 -0.149968,-0.04959 -0.01668,-0.0208 -0.032378,-0.175735 -0.048057,-0.197294 z"
         inkscape:transform-center-x="-0.28444915"
         inkscape:transform-center-y="-0.17938957" />
      <circle
         style="fill:#ffffff;fill-opacity:1;stroke:#232323;stroke-width:0.2;stroke-miterlimit:4;stroke-dasharray:none;stroke-dashoffset:0.01;stroke-opacity:1"
         id="path960"
         cx="4.9609227"
         cy="48.925846"
         r="2.5489297" />
    </g>
    <g
       id="g3401"
       transform="rotate(-90,5.9448569,29.608526)">
      <path
         style="fill:none;fill-opacity:1;stroke:#232323;stroke-width:0.25;stroke-miterlimit:4;stroke-dasharray:none;stroke-dashoffset:0.0377953;stroke-opacity:1"
         id="path3392"
         sodipodi:type="arc"
         sodipodi:cx="5.6802735"
         sodipodi:cy="30.468422"
         sodipodi:rx="1.6628339"
         sodipodi:ry="1.6628339"
         sodipodi:start="0.17453293"
         sodipodi:end="2.9670597"
         sodipodi:arc-type="arc"
         d="M 7.3178453,30.75717 A 1.6628339,1.6628339 0 0 1 5.6802735,32.131256 1.6628339,1.6628339 0 0 1 4.0427018,30.75717"
         sodipodi:open="true" />
      <path
         style="fill:none;fill-opacity:1;stroke:#232323;stroke-width:0.25;stroke-miterlimit:4;stroke-dasharray:none;stroke-dashoffset:0.0377953;stroke-opacity:1"
         id="path3394"
         sodipodi:type="arc"
         sodipodi:cx="5.6802735"
         sodipodi:cy="30.468422"
         sodipodi:rx="1.6628339"
         sodipodi:ry="1.6628339"
         sodipodi:start="3.3161256"
         sodipodi:end="6.1086524"
         sodipodi:arc-type="arc"
         d="m 4.0427018,30.179674 a 1.6628339,1.6628339 0 0 1 1.6375717,-1.374086 1.6628339,1.6628339 0 0 1 1.6375718,1.374086"
         sodipodi:open="true" />
      <circle
         style="fill:none;fill-opacity:1;stroke:#232323;stroke-width:0.15;stroke-miterlimit:4;stroke-dasharray:none;stroke-dashoffset:0.0377953;stroke-opacity:1"
         id="path3396"
         cx="5.6802735"
         cy="30.468422"
         r="0.56223959" />
    </g>
    <g
       id="g3409"
       transform="translate(15.060962,87.857322)">
      <path
         style="fill:none;fill-opacity:1;stroke:#232323;stroke-width:0.25;stroke-miterlimit:4;stroke-dasharray:none;stroke-dashoffset:0.0377953;stroke-opacity:1"
         id="path3403"
         sodipodi:type="arc"
         sodipodi:cx="5.6802735"
         sodipodi:cy="30.468422"
         sodipodi:rx="1.6628339"
         sodipodi:ry="1.6628339"
         sodipodi:start="0.17453293"
         sodipodi:end="2.9670597"
         sodipodi:arc-type="arc"
         d="M 7.3178453,30.75717 A 1.6628339,1.6628339 0 0 1 5.6802735,32.131256 1.6628339,1.6628339 0 0 1 4.0427018,30.75717"
         sodipodi:open="true" />
      <path
         style="fill:none;fill-opacity:1;stroke:#232323;stroke-width:0.25;stroke-miterlimit:4;stroke-dasharray:none;stroke-dashoffset:0.0377953;stroke-opacity:1"
         id="path3405"
         sodipodi:type="arc"
         sodipodi:cx="5.6802735"
         sodipodi:cy="30.468422"
         sodipodi:rx="1.6628339"
         sodipodi:ry="1.6628339"
         sodipodi:start="3.3161256"
         sodipodi:end="6.1086524"
         sodipodi:arc-type="arc"
         d="m 4.0427018,30.179674 a 1.6628339,1.6628339 0 0 1 1.6375717,-1.374086 1.6628339,1.6628339 0 0 1 1.6375718,1.374086"
         sodipodi:open="true" />
      <circle
         style="fill:none;fill-opacity:1;stroke:#232323;stroke-width:0.15;stroke-miterlimit:4;stroke-dasharray:none;stroke-dashoffset:0.0377953;stroke-opacity:1"
         id="circle3407"
         cx="5.6802735"
         cy="30.468422"
         r="0.56223959" />
    </g>
    <rect
       style="display:inline;fill:#232323;fill-opacity:1;stroke:#adadad;stroke-width:0.265;stroke-miterlimit:4;stroke-dasharray:none;stroke-opacity:1"
       id="rect3423"
       width="5.0800004"
       height="7.9375"
       x="12.700001"
       y="68.791664"
       rx="0.25399998"
       ry="0.26458305" />
    <g
       id="g3432">
      <rect
         style="fill:#ffffff;fill-opacity:1;stroke:#000000;stroke-width:0.065;stroke-miterlimit:4;stroke-dasharray:none;stroke-dashoffset:0.0377953;stroke-opacity:1"
         id="rect3426"
         width="4.6932859"
         height="3.733279"
         x="12.889744"
         y="68.99012"
         rx="0.075680822"
         ry="0.071644582" />
      <rect
         style="fill:#16b216;fill-opacity:1;stroke:#000000;stroke-width:0.0649999;stroke-miterlimit:4;stroke-dasharray:none;stroke-dashoffset:0.0377953;stroke-opacity:1"
         id="rect3428"
         width="2.379534"
         height="0.49695426"
         x="14.046619"
         y="70.608284"
         rx="0.075680889"
         ry="0.071644671" />
    </g>
  </g>
  <g
     inkscape:label="Layer 1"
     inkscape:groupmode="layer"
     id="layer1"
     style="display:inline">
    <rect
       style="fill:#f9f9f9;fill-opacity:1;stroke:none;stroke-width:0.0649999;stroke-dashoffset:0.0377953"
       id="rect1093"
       width="30.480001"
       height="128.32292"
       x="0"
       y="0"
       rx="0"
       ry="0" />
    <text
       xml:space="preserve"
       id="text833"
       style="font-size:2.82222px;line-height:1.25;font-family:sans-serif;white-space:pre;shape-inside:url(#rect835);" />
    <g
       id="g2958"
       transform="translate(2.8297124e-7,19.84375)"
       style="stroke:none;stroke-width:0.05;stroke-miterlimit:4;stroke-dasharray:none;stroke-opacity:1">
      <rect
         style="fill:#adadad;fill-opacity:1;stroke:none;stroke-width:0.05;stroke-miterlimit:4;stroke-dasharray:none;stroke-opacity:1"
         id="rect2946"
         width="14.478001"
         height="8.4666672"
         x="13.716"
         y="5.0270834"
         ry="0" />
      <rect
         style="fill:#000200;fill-opacity:1;stroke:none;stroke-width:0.05;stroke-miterlimit:4;stroke-dasharray:none;stroke-opacity:1"
         id="rect992"
         width="13.970001"
         height="7.9374986"
         x="13.97"
         y="5.2916684"
         ry="0.2267855"
         rx="0.19957149" />
    </g>
    <g
       id="g3080"
       transform="translate(-1.3414061e-6,39.6875)">
      <rect
         style="fill:#adadad;fill-opacity:1;stroke:none;stroke-width:0.558588;stroke-opacity:1"
         id="rect3070"
         width="14.478001"
         height="8.4666672"
         x="13.716"
         y="5.0270834"
         ry="0" />
      <rect
         style="fill:#000200;fill-opacity:1;stroke:none;stroke-width:0.531278;stroke-opacity:1"
         id="rect3072"
         width="13.970001"
         height="7.9374986"
         x="13.97"
         y="5.2916684"
         ry="0.2267855"
         rx="0.19957149" />
    </g>
    <g
       id="g3094"
       transform="translate(-1.3414061e-6,50.270833)">
      <rect
         style="fill:#adadad;fill-opacity:1;stroke:none;stroke-width:0.558588;stroke-opacity:1"
         id="rect3084"
         width="14.478001"
         height="8.4666672"
         x="13.716"
         y="5.0270834"
         ry="0" />
      <rect
         style="fill:#000200;fill-opacity:1;stroke:none;stroke-width:0.531278;stroke-opacity:1"
         id="rect3086"
         width="13.970001"
         height="7.9374986"
         x="13.97"
         y="5.2916684"
         ry="0.2267855"
         rx="0.19957149" />
    </g>
    <g
       id="g910"
       transform="translate(-1.3414061e-6,76.729166)">
      <rect
         style="fill:#adadad;fill-opacity:1;stroke:none;stroke-width:0.558588;stroke-opacity:1"
         id="rect900"
         width="14.478001"
         height="8.4666672"
         x="13.716"
         y="5.0270834"
         ry="0" />
      <rect
         style="fill:#000200;fill-opacity:1;stroke:none;stroke-width:0.531278;stroke-opacity:1"
         id="rect902"
         width="13.970001"
         height="7.9374986"
         x="13.97"
         y="5.2916684"
         ry="0.2267855"
         rx="0.19957149" />
    </g>
    <g
       aria-label="CLK IN"
       transform="translate(-3.9916304,20.081931)"
       id="text3008"
       style="font-style:normal;font-variant:normal;font-weight:normal;font-stretch:normal;font-size:2.11667px;line-height:1.25;font-family:sans-serif;-inkscape-font-specification:'sans-serif, Normal';font-variant-ligatures:normal;font-variant-caps:normal;font-variant-numeric:normal;font-variant-east-asian:normal;white-space:pre;shape-inside:url(#rect3010)">
      <path
         d="m 7.4055191,5.6789498 q -0.09474,0.041341 -0.1722549,0.077515 -0.075792,0.036174 -0.1998157,0.075792 -0.1050755,0.032729 -0.229099,0.055122 -0.1223009,0.024116 -0.2704401,0.024116 -0.279053,0 -0.508152,-0.077515 Q 5.798381,5.7547419 5.6295712,5.5876547 5.4642065,5.4240126 5.3711889,5.1725204 5.2781712,4.9193057 5.2781712,4.5851313 q 0,-0.316949 0.089573,-0.5667186 Q 5.4573163,3.7686431 5.6261261,3.5963882 5.7897683,3.429301 6.0205898,3.341451 q 0.2325441,-0.08785 0.5150421,-0.08785 0.2067059,0 0.4116892,0.049954 0.2067058,0.049954 0.458198,0.1757 v 0.404799 H 7.3796808 Q 7.1678073,3.7066314 6.9593789,3.6256716 q -0.2084284,-0.08096 -0.4461401,-0.08096 -0.194648,0 -0.3514,0.063734 -0.1550294,0.062012 -0.2773304,0.194648 -0.1188558,0.1291912 -0.1860352,0.3272843 -0.065457,0.1963705 -0.065457,0.4547529 0,0.2704401 0.072347,0.4650882 0.07407,0.194648 0.1894803,0.316949 0.1205785,0.1274686 0.2807755,0.1894803 0.1619196,0.060289 0.3410647,0.060289 0.2463245,0 0.4616431,-0.084405 0.2153186,-0.084405 0.4030764,-0.2532146 h 0.024116 z"
         style="font-style:normal;font-variant:normal;font-weight:normal;font-stretch:normal;font-size:3.52778px;font-family:sans-serif;-inkscape-font-specification:'sans-serif, Normal';font-variant-ligatures:normal;font-variant-caps:normal;font-variant-numeric:normal;font-variant-east-asian:normal"
         id="path1044" />
      <path
         d="M 9.5104738,5.8649851 H 7.8878328 V 3.3001098 h 0.3410647 v 2.2617067 h 1.2815763 z"
         style="font-style:normal;font-variant:normal;font-weight:normal;font-stretch:normal;font-size:3.52778px;font-family:sans-serif;-inkscape-font-specification:'sans-serif, Normal';font-variant-ligatures:normal;font-variant-caps:normal;font-variant-numeric:normal;font-variant-east-asian:normal"
         id="path1046" />
      <path
         d="M 11.913429,5.8649851 H 11.470734 L 10.456153,4.7229352 10.201216,4.9950979 V 5.8649851 H 9.8601511 V 3.3001098 H 10.201216 V 4.6385303 L 11.446619,3.3001098 H 11.86003 L 10.714535,4.505894 Z"
         style="font-style:normal;font-variant:normal;font-weight:normal;font-stretch:normal;font-size:3.52778px;font-family:sans-serif;-inkscape-font-specification:'sans-serif, Normal';font-variant-ligatures:normal;font-variant-caps:normal;font-variant-numeric:normal;font-variant-east-asian:normal"
         id="path1048" />
      <path
         d="M 14.440409,5.8649851 H 13.42755 V 5.6031576 h 0.335897 V 3.5619373 H 13.42755 V 3.3001098 h 1.012859 v 0.2618275 h -0.335897 v 2.0412203 h 0.335897 z"
         style="font-style:normal;font-variant:normal;font-weight:normal;font-stretch:normal;font-size:3.52778px;font-family:sans-serif;-inkscape-font-specification:'sans-serif, Normal';font-variant-ligatures:normal;font-variant-caps:normal;font-variant-numeric:normal;font-variant-east-asian:normal"
         id="path1050" />
      <path
         d="M 16.977723,5.8649851 H 16.555698 L 15.339579,3.57055 V 5.8649851 H 15.020907 V 3.3001098 h 0.528823 l 1.109321,2.0946194 V 3.3001098 h 0.318672 z"
         style="font-style:normal;font-variant:normal;font-weight:normal;font-stretch:normal;font-size:3.52778px;font-family:sans-serif;-inkscape-font-specification:'sans-serif, Normal';font-variant-ligatures:normal;font-variant-caps:normal;font-variant-numeric:normal;font-variant-east-asian:normal"
         id="path1052" />
    </g>
    <g
       aria-label="BPM"
       transform="translate(15.464917,18.652024)"
       id="text3024"
       style="font-style:normal;font-variant:normal;font-weight:normal;font-stretch:normal;font-size:3.52778px;line-height:1.25;font-family:sans-serif;-inkscape-font-specification:'sans-serif, Normal';font-variant-ligatures:normal;font-variant-caps:normal;font-variant-numeric:normal;font-variant-east-asian:normal;white-space:pre;shape-inside:url(#rect3026)">
      <path
         d="m 7.3590103,5.0760577 q 0,0.1912029 -0.072347,0.3376196 Q 7.2143162,5.5600939 7.0920152,5.6548341 6.9473211,5.7685223 6.7733436,5.8167537 6.6010888,5.8649851 6.3340937,5.8649851 H 5.4245879 V 3.3001098 h 0.759644 q 0.2807755,0 0.420302,0.020671 0.1395264,0.020671 0.266995,0.086128 0.141249,0.07407 0.2049833,0.1912029 0.063734,0.1154108 0.063734,0.2773303 0,0.1825902 -0.093018,0.3117814 -0.093018,0.1274686 -0.248047,0.2049833 v 0.01378 q 0.2601049,0.053399 0.4099666,0.229099 0.1498618,0.1739774 0.1498618,0.4409725 z M 6.7854015,3.9202274 q 0,-0.093018 -0.031006,-0.1567519 Q 6.7233897,3.6997412 6.6544878,3.6601225 6.573528,3.6136137 6.4581172,3.6032784 6.3427064,3.5912206 6.1721741,3.5912206 H 5.7656526 v 0.740696 h 0.4409725 q 0.160197,0 0.2549372,-0.015503 0.09474,-0.017225 0.1757,-0.068902 0.08096,-0.051676 0.1136882,-0.1326363 0.034451,-0.082682 0.034451,-0.194648 z m 0.2187637,1.1696107 q 0,-0.1550294 -0.046509,-0.2463245 Q 6.9111476,4.7522185 6.7888466,4.6884842 6.7061642,4.6454205 6.5873084,4.6333626 6.4701751,4.6195822 6.3013653,4.6195822 H 5.7656526 v 0.9542921 h 0.4513078 q 0.2239313,0 0.3669029,-0.022393 0.1429715,-0.024116 0.2342666,-0.086127 0.096463,-0.067179 0.141249,-0.1533068 0.044786,-0.086127 0.044786,-0.2222088 z"
         style="font-style:normal;font-variant:normal;font-weight:normal;font-stretch:normal;font-size:3.52778px;font-family:sans-serif;-inkscape-font-specification:'sans-serif, Normal';font-variant-ligatures:normal;font-variant-caps:normal;font-variant-numeric:normal;font-variant-east-asian:normal"
         id="path1055" />
      <path
         d="m 9.5208092,4.0752568 q 0,0.1705323 -0.060289,0.316949 Q 9.4019533,4.5368999 9.2951553,4.6436979 9.162519,4.7763342 8.9816514,4.8435136 8.8007838,4.9089705 8.5251759,4.9089705 H 8.1841113 V 5.8649851 H 7.8430466 V 3.3001098 h 0.6959097 q 0.2308216,0 0.3910186,0.039619 0.1601971,0.037896 0.2842206,0.1205785 0.1464166,0.098185 0.2256539,0.2446019 0.08096,0.1464167 0.08096,0.370348 z m -0.3548451,0.00861 q 0,-0.1326363 -0.046509,-0.2308216 Q 9.0729465,3.7548627 8.9782063,3.692851 8.8955239,3.6394519 8.7887259,3.6170588 8.6836504,3.5929431 8.5217308,3.5929431 H 8.1841113 v 1.0249166 h 0.2876656 q 0.2067059,0 0.3358971,-0.036174 0.1291911,-0.037896 0.2101509,-0.1188559 0.08096,-0.082682 0.1136882,-0.1739774 0.034451,-0.091295 0.034451,-0.2049833 z"
         style="font-style:normal;font-variant:normal;font-weight:normal;font-stretch:normal;font-size:3.52778px;font-family:sans-serif;-inkscape-font-specification:'sans-serif, Normal';font-variant-ligatures:normal;font-variant-caps:normal;font-variant-numeric:normal;font-variant-east-asian:normal"
         id="path1057" />
      <path
         d="M 12.254495,5.8649851 H 11.91343 V 3.6549549 L 11.200295,5.15874 H 10.997034 L 10.289066,3.6549549 V 5.8649851 H 9.9703948 V 3.3001098 h 0.4650882 l 0.683852,1.427993 0.661459,-1.427993 h 0.473701 z"
         style="font-style:normal;font-variant:normal;font-weight:normal;font-stretch:normal;font-size:3.52778px;font-family:sans-serif;-inkscape-font-specification:'sans-serif, Normal';font-variant-ligatures:normal;font-variant-caps:normal;font-variant-numeric:normal;font-variant-east-asian:normal"
         id="path1059" />
    </g>
    <g
       aria-label="NOTES"
       transform="translate(11.083156,38.555586)"
       id="text3032"
       style="font-style:normal;font-variant:normal;font-weight:normal;font-stretch:normal;font-size:3.52778px;line-height:1.25;font-family:sans-serif;-inkscape-font-specification:'sans-serif, Normal';font-variant-ligatures:normal;font-variant-caps:normal;font-variant-numeric:normal;font-variant-east-asian:normal;white-space:pre;shape-inside:url(#rect3034)">
      <path
         d="M 7.3814034,5.8649851 H 6.9593789 L 5.7432594,3.57055 V 5.8649851 H 5.4245879 V 3.3001098 H 5.9534104 L 7.0627319,5.3947292 V 3.3001098 h 0.3186715 z"
         id="path1062" />
      <path
         d="m 9.975562,3.5946657 q 0.156752,0.1722549 0.239434,0.4220244 0.08441,0.2497696 0.08441,0.5667186 0,0.316949 -0.08613,0.5684411 -0.08441,0.2497696 -0.237712,0.4168569 -0.1584745,0.1739774 -0.3755157,0.2618274 -0.2153186,0.08785 -0.4926489,0.08785 -0.2704402,0 -0.492649,-0.089573 Q 8.3942621,5.739239 8.2392327,5.5687067 8.0842033,5.3981743 7.9997985,5.1501273 7.9171161,4.9020803 7.9171161,4.5834087 q 0,-0.3135039 0.082682,-0.5615509 0.082682,-0.2497696 0.2411568,-0.4271921 0.1515843,-0.1688098 0.3755156,-0.2583823 0.2256539,-0.089573 0.4909265,-0.089573 0.2756078,0 0.4943715,0.091295 0.2204862,0.089572 0.3737931,0.2566598 z m -0.031006,0.988743 q 0,-0.4995391 -0.2239313,-0.7699793 -0.2239314,-0.2721627 -0.6115049,-0.2721627 -0.3910186,0 -0.6149499,0.2721627 -0.2222088,0.2704402 -0.2222088,0.7699793 0,0.5047068 0.2273764,0.7734245 0.2273765,0.266995 0.6097823,0.266995 0.3824059,0 0.6080598,-0.266995 0.2273764,-0.2687177 0.2273764,-0.7734245 z"
         id="path1064" />
      <path
         d="M 12.583501,3.6032784 H 11.667105 V 5.8649851 H 11.32604 V 3.6032784 H 10.409644 V 3.3001098 h 2.173857 z"
         id="path1066" />
      <path
         d="m 14.617831,5.8649851 h -1.68982 V 3.3001098 h 1.68982 v 0.3031686 h -1.348756 v 0.7028 h 1.348756 V 4.609247 h -1.348756 v 0.9525695 h 1.348756 z"
         id="path1068" />
      <path
         d="m 17.022509,5.1329018 q 0,0.1498618 -0.07062,0.2962784 -0.0689,0.1464167 -0.194648,0.248047 -0.137803,0.1102432 -0.322116,0.1722549 -0.18259,0.062012 -0.440973,0.062012 -0.27733,0 -0.499539,-0.051677 Q 15.274122,5.808141 15.045023,5.7065106 V 5.2793185 h 0.02412 q 0.194648,0.1619196 0.449585,0.2497695 0.254937,0.08785 0.478868,0.08785 0.316949,0 0.492649,-0.1188558 0.177423,-0.1188559 0.177423,-0.316949 0,-0.1705324 -0.0844,-0.2514922 -0.08268,-0.08096 -0.253215,-0.125746 -0.129191,-0.034451 -0.280775,-0.056844 -0.149862,-0.022393 -0.318672,-0.056844 -0.341064,-0.072347 -0.506429,-0.2463245 -0.163642,-0.1757 -0.163642,-0.4564755 0,-0.3221166 0.272163,-0.5270999 0.272162,-0.2067059 0.690742,-0.2067059 0.27044,0 0.496094,0.051676 0.225654,0.051676 0.399631,0.1274686 V 3.8358225 H 16.89504 Q 16.748624,3.711799 16.509189,3.6308392 q -0.237711,-0.082682 -0.487481,-0.082682 -0.273885,0 -0.440972,0.1136882 -0.165365,0.1136882 -0.165365,0.2928333 0,0.160197 0.08268,0.2514921 0.08268,0.091295 0.291111,0.1395265 0.110243,0.024116 0.313504,0.058567 0.203261,0.034451 0.34451,0.070625 0.285943,0.075792 0.430637,0.229099 0.144694,0.1533069 0.144694,0.4289147 z"
         id="path1070" />
    </g>
    <g
       aria-label="MS"
       transform="translate(17.564442,75.628733)"
       id="text3040"
       style="font-style:normal;font-variant:normal;font-weight:normal;font-stretch:normal;font-size:3.52778px;line-height:1.25;font-family:sans-serif;-inkscape-font-specification:'sans-serif, Normal';font-variant-ligatures:normal;font-variant-caps:normal;font-variant-numeric:normal;font-variant-east-asian:normal;white-space:pre;shape-inside:url(#rect3042)">
      <path
         d="M 7.7086877,5.8649851 H 7.367623 V 3.6549549 L 6.6544878,5.15874 H 6.451227 L 5.7432594,3.6549549 V 5.8649851 H 5.4245879 V 3.3001098 h 0.4650882 l 0.6838519,1.427993 0.6614587,-1.427993 h 0.473701 z"
         id="path1073" />
      <path
         d="m 10.261505,5.1329018 q 0,0.1498618 -0.07062,0.2962784 -0.0689,0.1464167 -0.1946485,0.248047 -0.1378039,0.1102432 -0.3221166,0.1722549 -0.1825902,0.062012 -0.4409726,0.062012 -0.2773303,0 -0.4995391,-0.051677 Q 8.5131179,5.808141 8.2840189,5.7065106 V 5.2793185 h 0.024116 q 0.194648,0.1619196 0.4495853,0.2497695 0.2549372,0.08785 0.4788685,0.08785 0.316949,0 0.492649,-0.1188558 Q 9.90666,5.3792263 9.90666,5.1811332 9.90666,5.0106008 9.8222551,4.929641 9.7395727,4.8486812 9.5690404,4.803895 9.4398492,4.769444 9.2882649,4.7470509 9.1384032,4.7246577 8.9695934,4.6902068 8.6285287,4.6178597 8.463164,4.4438823 8.2995219,4.2681823 8.2995219,3.9874068 q 0,-0.3221166 0.2721627,-0.5270999 0.2721627,-0.2067059 0.6907421,-0.2067059 0.2704402,0 0.4960941,0.051676 0.2256539,0.051676 0.3996312,0.1274686 v 0.4030764 h -0.02412 Q 9.9876197,3.711799 9.7481855,3.6308392 9.5104737,3.5481569 9.2607041,3.5481569 q -0.2738852,0 -0.4409725,0.1136882 -0.1653647,0.1136882 -0.1653647,0.2928333 0,0.160197 0.082682,0.2514921 0.082682,0.091295 0.2911107,0.1395265 0.1102432,0.024116 0.3135039,0.058567 0.2032608,0.034451 0.3445098,0.070625 0.2859431,0.075792 0.4306373,0.229099 0.144694,0.1533069 0.144694,0.4289147 z"
         id="path1075" />
    </g>
    <g
       aria-label="TRG OUT"
       transform="translate(7.807365,108.62289)"
       id="text3058"
       style="font-style:normal;font-variant:normal;font-weight:normal;font-stretch:normal;font-size:2.11667px;line-height:1.25;font-family:sans-serif;-inkscape-font-specification:'sans-serif, Normal';font-variant-ligatures:normal;font-variant-caps:normal;font-variant-numeric:normal;font-variant-east-asian:normal;white-space:pre;shape-inside:url(#rect3060)">
      <path
         d="M 7.2539348,3.6032784 H 6.3375388 V 5.8649851 H 5.9964741 V 3.6032784 H 5.0800781 V 3.3001098 h 2.1738567 z"
         style="font-style:normal;font-variant:normal;font-weight:normal;font-stretch:normal;font-size:3.52778px;font-family:sans-serif;-inkscape-font-specification:'sans-serif, Normal';font-variant-ligatures:normal;font-variant-caps:normal;font-variant-numeric:normal;font-variant-east-asian:normal"
         id="path1078" />
      <path
         d="M 9.7206248,5.8649851 H 9.2779298 L 8.4201004,4.8452361 H 7.9395093 v 1.019749 H 7.5984446 V 3.3001098 h 0.7183029 q 0.2325441,0 0.3875735,0.031006 0.1550294,0.029283 0.2790529,0.106798 0.1395265,0.08785 0.2170412,0.2222088 0.079237,0.1326363 0.079237,0.3376196 0,0.2773304 -0.1395264,0.4650882 Q 9.0005994,4.6488656 8.7559975,4.7436058 Z M 8.9230847,4.0218578 q 0,-0.1102431 -0.039619,-0.194648 Q 8.84557,3.7410823 8.7559975,3.6825157 8.6819279,3.6325618 8.5802975,3.6136137 8.4786671,3.5929431 8.3408632,3.5929431 H 7.9395093 v 0.9680725 h 0.3445098 q 0.1619196,0 0.282498,-0.027561 0.1205784,-0.029283 0.2049833,-0.106798 0.077515,-0.072347 0.1136882,-0.1653647 0.037896,-0.09474 0.037896,-0.2394343 z"
         style="font-style:normal;font-variant:normal;font-weight:normal;font-stretch:normal;font-size:3.52778px;font-family:sans-serif;-inkscape-font-specification:'sans-serif, Normal';font-variant-ligatures:normal;font-variant-caps:normal;font-variant-numeric:normal;font-variant-east-asian:normal"
         id="path1080" />
      <path
         d="m 12.19076,5.6755047 q -0.210151,0.096463 -0.459921,0.1688098 -0.248047,0.070625 -0.480591,0.070625 -0.299723,0 -0.549493,-0.082682 -0.24977,-0.082682 -0.42547,-0.248047 Q 10.097863,5.4171224 10.0014,5.1673528 9.9049374,4.9158607 9.9049374,4.5799636 q 0,-0.6149499 0.3582906,-0.969795 0.360012,-0.3565676 0.98702,-0.3565676 0.218764,0 0.44614,0.053399 0.229099,0.051677 0.492649,0.1774226 v 0.4047989 h -0.03101 q -0.0534,-0.041341 -0.155029,-0.1085205 -0.10163,-0.067179 -0.199816,-0.1119657 -0.118856,-0.053399 -0.27044,-0.08785 -0.149862,-0.036173 -0.341065,-0.036173 -0.430637,0 -0.682129,0.2773303 -0.249769,0.2756078 -0.249769,0.7475862 0,0.4978167 0.261827,0.775147 0.261827,0.2756078 0.713135,0.2756078 0.165365,0 0.329007,-0.032728 0.165365,-0.032728 0.289388,-0.084405 V 4.8745195 H 11.165843 V 4.574796 h 1.024917 z"
         style="font-style:normal;font-variant:normal;font-weight:normal;font-stretch:normal;font-size:3.52778px;font-family:sans-serif;-inkscape-font-specification:'sans-serif, Normal';font-variant-ligatures:normal;font-variant-caps:normal;font-variant-numeric:normal;font-variant-east-asian:normal"
         id="path1082" />
      <path
         d="m 15.939026,3.5946657 q 0.156752,0.1722549 0.239435,0.4220244 0.08441,0.2497696 0.08441,0.5667186 0,0.316949 -0.08613,0.5684411 -0.08441,0.2497696 -0.237712,0.4168569 -0.158474,0.1739774 -0.375515,0.2618274 -0.215319,0.08785 -0.492649,0.08785 -0.27044,0 -0.492649,-0.089573 -0.220486,-0.089572 -0.375516,-0.2601048 -0.155029,-0.1705324 -0.239434,-0.4185794 -0.08268,-0.248047 -0.08268,-0.5667186 0,-0.3135039 0.08268,-0.5615509 0.08268,-0.2497696 0.241157,-0.4271921 0.151584,-0.1688098 0.375515,-0.2583823 0.225654,-0.089573 0.490927,-0.089573 0.275608,0 0.494371,0.091295 0.220487,0.089572 0.373793,0.2566598 z m -0.03101,0.988743 q 0,-0.4995391 -0.223932,-0.7699793 -0.223931,-0.2721627 -0.611505,-0.2721627 -0.391018,0 -0.61495,0.2721627 -0.222208,0.2704402 -0.222208,0.7699793 0,0.5047068 0.227376,0.7734245 0.227377,0.266995 0.609782,0.266995 0.382406,0 0.60806,-0.266995 0.227377,-0.2687177 0.227377,-0.7734245 z"
         style="font-style:normal;font-variant:normal;font-weight:normal;font-stretch:normal;font-size:3.52778px;font-family:sans-serif;-inkscape-font-specification:'sans-serif, Normal';font-variant-ligatures:normal;font-variant-caps:normal;font-variant-numeric:normal;font-variant-east-asian:normal"
         id="path1084" />
      <path
         d="m 18.734723,4.8349009 q 0,0.2790529 -0.06201,0.4874813 -0.06029,0.2067058 -0.199815,0.3445098 -0.132637,0.1309137 -0.310059,0.1912029 -0.177423,0.060289 -0.413412,0.060289 -0.241157,0 -0.420302,-0.063734 Q 17.149978,5.7909155 17.027677,5.666892 16.888151,5.5256429 16.826139,5.3258273 16.76585,5.1260116 16.76585,4.8349009 V 3.3001098 h 0.341065 v 1.5520165 q 0,0.2084285 0.02756,0.3290069 0.02928,0.1205784 0.09646,0.2187637 0.07579,0.1119657 0.204983,0.1688098 0.130914,0.056844 0.313504,0.056844 0.184313,0 0.313504,-0.055122 0.129191,-0.056844 0.206706,-0.1705323 0.06718,-0.098185 0.09474,-0.2239314 0.02928,-0.1274686 0.02928,-0.3152264 V 3.3001098 h 0.341064 z"
         style="font-style:normal;font-variant:normal;font-weight:normal;font-stretch:normal;font-size:3.52778px;font-family:sans-serif;-inkscape-font-specification:'sans-serif, Normal';font-variant-ligatures:normal;font-variant-caps:normal;font-variant-numeric:normal;font-variant-east-asian:normal"
         id="path1086" />
      <path
         d="M 21.215193,3.6032784 H 20.298797 V 5.8649851 H 19.957732 V 3.6032784 H 19.041336 V 3.3001098 h 2.173857 z"
         style="font-style:normal;font-variant:normal;font-weight:normal;font-stretch:normal;font-size:3.52778px;font-family:sans-serif;-inkscape-font-specification:'sans-serif, Normal';font-variant-ligatures:normal;font-variant-caps:normal;font-variant-numeric:normal;font-variant-east-asian:normal"
         id="path1088" />
    </g>
    <g
       aria-label="CLOCK ADVANCE"
       transform="translate(-3.5420715,2.2629423)"
       id="text3064"
       style="font-style:normal;font-variant:normal;font-weight:normal;font-stretch:normal;font-size:5.64444px;line-height:1.25;font-family:sans-serif;-inkscape-font-specification:'sans-serif, Normal';font-variant-ligatures:normal;font-variant-caps:normal;font-variant-numeric:normal;font-variant-east-asian:normal;white-space:pre;shape-inside:url(#rect3066)">
      <path
         d="M 8.8007784,7.4984222 Q 8.6491943,7.564568 8.525171,7.6224456 8.4039037,7.6803231 8.2054664,7.7437129 q -0.1681205,0.052365 -0.3665579,0.088194 -0.1956813,0.038585 -0.4327037,0.038585 -0.446484,0 -0.8130419,-0.1240234 Q 6.2293611,7.6196895 5.9592658,7.3523503 5.6946827,7.0905232 5.5458547,6.6881364 5.3970267,6.2829935 5.3970267,5.7483151 q 0,-0.5071177 0.1433158,-0.9067485 0.1433159,-0.3996308 0.4134112,-0.6752382 0.261827,-0.2673392 0.631141,-0.407899 0.37207,-0.1405598 0.8240662,-0.1405598 0.3307289,0 0.6587018,0.079926 0.3307289,0.079926 0.7331157,0.2811196 V 4.6265928 H 8.7594373 Q 8.4204402,4.3427172 8.0869552,4.2131817 7.7534702,4.0836462 7.3731319,4.0836462 q -0.3114364,0 -0.5622391,0.1019747 Q 6.5628461,4.2848396 6.3671648,4.4970573 6.1769957,4.7037629 6.0695088,5.0207114 5.964778,5.3349039 5.964778,5.7483151 q 0,0.4327036 0.1157551,0.74414 0.1185112,0.3114364 0.3031682,0.5071177 0.1929252,0.2039495 0.4492401,0.3031682 0.259071,0.096463 0.5457027,0.096463 0.3941186,0 0.7386279,-0.1350477 0.3445093,-0.135048 0.6449214,-0.4051433 h 0.038585 z"
         style="font-style:normal;font-variant:normal;font-weight:normal;font-stretch:normal;font-size:5.64444px;font-family:sans-serif;-inkscape-font-specification:'sans-serif, Normal';font-variant-ligatures:normal;font-variant-caps:normal;font-variant-numeric:normal;font-variant-east-asian:normal"
         id="path1019" />
      <path
         d="M 12.168701,7.7960783 H 9.5724792 V 3.6922836 h 0.5457028 v 3.6187256 h 2.050519 z"
         style="font-style:normal;font-variant:normal;font-weight:normal;font-stretch:normal;font-size:5.64444px;font-family:sans-serif;-inkscape-font-specification:'sans-serif, Normal';font-variant-ligatures:normal;font-variant-caps:normal;font-variant-numeric:normal;font-variant-east-asian:normal"
         id="path1021" />
      <path
         d="m 15.718525,4.1635723 q 0.250803,0.2756075 0.383094,0.6752382 0.135048,0.3996308 0.135048,0.9067485 0,0.5071177 -0.137804,0.9095045 -0.135048,0.3996308 -0.380338,0.66697 -0.253559,0.2783635 -0.600824,0.4189233 -0.34451,0.1405598 -0.788238,0.1405598 -0.432703,0 -0.788237,-0.1433159 Q 13.188449,7.5948848 12.940402,7.3220335 12.692355,7.0491821 12.557308,6.6523074 12.425016,6.2554327 12.425016,5.745559 q 0,-0.5016055 0.132292,-0.8984802 0.132291,-0.3996308 0.38585,-0.6835065 0.242535,-0.2700952 0.600824,-0.4134111 0.361046,-0.1433159 0.785481,-0.1433159 0.440972,0 0.790994,0.146072 0.352777,0.1433158 0.598068,0.410655 z m -0.04961,1.5819867 q 0,-0.7992616 -0.35829,-1.2319652 -0.35829,-0.4354598 -0.978407,-0.4354598 -0.625628,0 -0.983918,0.4354598 -0.355534,0.4327036 -0.355534,1.2319652 0,0.8075298 0.363802,1.2374773 0.363802,0.4271916 0.97565,0.4271916 0.611849,0 0.972895,-0.4271916 0.363802,-0.4299475 0.363802,-1.2374773 z"
         style="font-style:normal;font-variant:normal;font-weight:normal;font-stretch:normal;font-size:5.64444px;font-family:sans-serif;-inkscape-font-specification:'sans-serif, Normal';font-variant-ligatures:normal;font-variant-caps:normal;font-variant-numeric:normal;font-variant-east-asian:normal"
         id="path1023" />
      <path
         d="m 20.27156,7.4984222 q -0.151584,0.066146 -0.275608,0.1240234 -0.121267,0.057878 -0.319704,0.1212673 -0.168121,0.052365 -0.366558,0.088194 -0.195681,0.038585 -0.432704,0.038585 -0.446484,0 -0.813042,-0.1240234 Q 17.700142,7.6196895 17.430047,7.3523503 17.165464,7.0905232 17.016636,6.6881364 16.867808,6.2829935 16.867808,5.7483151 q 0,-0.5071177 0.143316,-0.9067485 0.143316,-0.3996308 0.413411,-0.6752382 0.261827,-0.2673392 0.631141,-0.407899 0.37207,-0.1405598 0.824066,-0.1405598 0.330729,0 0.658702,0.079926 0.330729,0.079926 0.733116,0.2811196 V 4.6265926 H 20.23022 Q 19.891222,4.3427172 19.557737,4.2131817 19.224252,4.0836462 18.843913,4.0836462 q -0.311436,0 -0.562239,0.1019747 -0.248047,0.099219 -0.443728,0.3114364 -0.190169,0.2067056 -0.297656,0.5236541 -0.104731,0.3141925 -0.104731,0.7276037 0,0.4327036 0.115755,0.74414 0.118512,0.3114364 0.303169,0.5071177 0.192925,0.2039495 0.44924,0.3031682 0.259071,0.096463 0.545702,0.096463 0.394119,0 0.738628,-0.1350477 0.34451,-0.1350476 0.644922,-0.4051429 h 0.03859 z"
         style="font-style:normal;font-variant:normal;font-weight:normal;font-stretch:normal;font-size:5.64444px;font-family:sans-serif;-inkscape-font-specification:'sans-serif, Normal';font-variant-ligatures:normal;font-variant-caps:normal;font-variant-numeric:normal;font-variant-east-asian:normal"
         id="path1025" />
      <path
         d="M 24.342281,7.7960783 H 23.63397 L 22.010642,5.968801 21.602743,6.4042607 V 7.7960783 H 21.057041 V 3.6922836 h 0.545702 v 2.1414698 l 1.992642,-2.1414698 h 0.661458 l -1.83279,1.929252 z"
         style="font-style:normal;font-variant:normal;font-weight:normal;font-stretch:normal;font-size:5.64444px;font-family:sans-serif;-inkscape-font-specification:'sans-serif, Normal';font-variant-ligatures:normal;font-variant-caps:normal;font-variant-numeric:normal;font-variant-east-asian:normal"
         id="path1027" />
      <path
         d="M 8.8669242,14.851628 H 8.2853925 L 7.8830057,13.707857 H 6.1080938 L 5.705707,14.851628 H 5.1517361 l 1.4937922,-4.103795 h 0.7276036 z m -1.152039,-1.612304 -0.7193354,-2.01469 -0.7220915,2.01469 z"
         style="font-style:normal;font-variant:normal;font-weight:normal;font-stretch:normal;font-size:5.64444px;font-family:sans-serif;-inkscape-font-specification:'sans-serif, Normal';font-variant-ligatures:normal;font-variant-caps:normal;font-variant-numeric:normal;font-variant-east-asian:normal"
         id="path1029" />
      <path
         d="m 12.956939,12.803865 q 0,0.559483 -0.245291,1.014235 -0.242535,0.454752 -0.647678,0.705555 -0.281119,0.173633 -0.628384,0.250803 -0.34451,0.07717 -0.909505,0.07717 H 9.489797 v -4.103795 h 1.02526 q 0.600824,0 0.953601,0.0882 0.355534,0.08544 0.600825,0.237022 0.418923,0.261827 0.653189,0.697287 0.234267,0.43546 0.234267,1.033528 z m -0.570508,-0.0083 q 0,-0.482313 -0.16812,-0.813041 -0.168121,-0.330729 -0.501606,-0.520899 -0.242534,-0.137803 -0.515386,-0.190169 -0.272851,-0.05512 -0.653189,-0.05512 H 10.0355 v 3.166729 h 0.51263 q 0.394118,0 0.686262,-0.05788 0.2949,-0.05788 0.540191,-0.214974 0.305924,-0.195681 0.457508,-0.515386 0.15434,-0.319705 0.15434,-0.799262 z"
         style="font-style:normal;font-variant:normal;font-weight:normal;font-stretch:normal;font-size:5.64444px;font-family:sans-serif;-inkscape-font-specification:'sans-serif, Normal';font-variant-ligatures:normal;font-variant-caps:normal;font-variant-numeric:normal;font-variant-east-asian:normal"
         id="path1031" />
      <path
         d="m 17.074513,10.747833 -1.493792,4.103795 h -0.727604 l -1.493792,-4.103795 h 0.584288 l 1.287087,3.610458 1.287086,-3.610458 z"
         style="font-style:normal;font-variant:normal;font-weight:normal;font-stretch:normal;font-size:5.64444px;font-family:sans-serif;-inkscape-font-specification:'sans-serif, Normal';font-variant-ligatures:normal;font-variant-caps:normal;font-variant-numeric:normal;font-variant-east-asian:normal"
         id="path1033" />
      <path
         d="m 20.767653,14.851628 h -0.581531 l -0.402387,-1.143771 h -1.774912 l -0.402387,1.143771 h -0.553971 l 1.493793,-4.103795 h 0.727603 z m -1.152039,-1.612304 -0.719335,-2.01469 -0.722092,2.01469 z"
         style="font-style:normal;font-variant:normal;font-weight:normal;font-stretch:normal;font-size:5.64444px;font-family:sans-serif;-inkscape-font-specification:'sans-serif, Normal';font-variant-ligatures:normal;font-variant-caps:normal;font-variant-numeric:normal;font-variant-east-asian:normal"
         id="path1035" />
      <path
         d="M 24.521427,14.851628 H 23.846189 L 21.9004,11.180537 v 3.671091 h -0.509874 v -4.103795 h 0.846115 l 1.774912,3.351387 v -3.351387 h 0.509874 z"
         style="font-style:normal;font-variant:normal;font-weight:normal;font-stretch:normal;font-size:5.64444px;font-family:sans-serif;-inkscape-font-specification:'sans-serif, Normal';font-variant-ligatures:normal;font-variant-caps:normal;font-variant-numeric:normal;font-variant-east-asian:normal"
         id="path1037" />
      <path
         d="m 28.782317,14.553972 q -0.151584,0.06615 -0.275607,0.124023 -0.121267,0.05788 -0.319705,0.121267 -0.16812,0.05237 -0.366558,0.08819 -0.195681,0.03859 -0.432703,0.03859 -0.446484,0 -0.813042,-0.124023 -0.363802,-0.12678 -0.633897,-0.394119 -0.264584,-0.261827 -0.413412,-0.664214 -0.148828,-0.405143 -0.148828,-0.939821 0,-0.507118 0.143316,-0.906749 0.143316,-0.399631 0.413411,-0.675238 0.261828,-0.267339 0.631141,-0.407899 0.37207,-0.14056 0.824067,-0.14056 0.330729,0 0.658701,0.07993 0.330729,0.07993 0.733116,0.28112 v 0.647677 h -0.04134 Q 28.40198,11.398271 28.068495,11.268735 27.73501,11.1392 27.354672,11.1392 q -0.311437,0 -0.562239,0.101975 -0.248047,0.09922 -0.443728,0.311436 -0.19017,0.206706 -0.297656,0.523654 -0.104731,0.314193 -0.104731,0.727604 0,0.432703 0.115755,0.74414 0.118511,0.311436 0.303168,0.507117 0.192925,0.20395 0.44924,0.303169 0.259071,0.09646 0.545703,0.09646 0.394118,0 0.738628,-0.135047 0.344509,-0.135048 0.644921,-0.405143 h 0.03858 z"
         style="font-style:normal;font-variant:normal;font-weight:normal;font-stretch:normal;font-size:5.64444px;font-family:sans-serif;-inkscape-font-specification:'sans-serif, Normal';font-variant-ligatures:normal;font-variant-caps:normal;font-variant-numeric:normal;font-variant-east-asian:normal"
         id="path1039" />
      <path
         d="m 32.257728,14.851628 h -2.703709 v -4.103795 h 2.703709 v 0.485069 h -2.158007 v 1.124479 h 2.158007 v 0.485069 h -2.158007 v 1.524109 h 2.158007 z"
         style="font-style:normal;font-variant:normal;font-weight:normal;font-stretch:normal;font-size:5.64444px;font-family:sans-serif;-inkscape-font-specification:'sans-serif, Normal';font-variant-ligatures:normal;font-variant-caps:normal;font-variant-numeric:normal;font-variant-east-asian:normal"
         id="path1041" />
    </g>
  </g>
  <g
     inkscape:groupmode="layer"
     id="layer3"
     inkscape:label="components"
     style="display:none">
    <rect
       style="fill:#ffff00;fill-opacity:1;stroke-width:0.280633"
       id="rect929"
       width="11.429999"
       height="5.2916656"
       x="15.240001"
       y="26.458334"
       inkscape:label="BPM" />
    <rect
       style="fill:#ffff00;fill-opacity:1;stroke-width:0.280633"
       id="rect931"
       width="11.429999"
       height="5.2916656"
       x="15.240001"
       y="46.302082"
       inkscape:label="BeatsNumerator" />
    <rect
       style="fill:#ffff00;fill-opacity:1;stroke-width:0.280633"
       id="rect933"
       width="11.429999"
       height="5.2916656"
       x="15.240001"
       y="56.885418"
       inkscape:label="BeatsDenominator" />
    <rect
       style="fill:#ffff00;fill-opacity:1;stroke-width:0.280633"
       id="rect935"
       width="11.429999"
       height="5.2916656"
       x="15.240001"
       y="83.34375"
       inkscape:label="MS" />
    <circle
       style="fill:#00ff00;fill-opacity:1;stroke-width:0.416554"
       id="circle964"
       inkscape:label="Clock"
       cx="7.1363163"
       cy="29.836767"
       r="3.1241536" />
    <circle
       style="fill:#ff0000;fill-opacity:1;stroke-width:0.389166"
       id="circle2960"
       inkscape:label="BeatsNumerator"
       cx="7.1363163"
       cy="48.940525"
       r="2.9187412" />
    <rect
       style="fill:#ff0000;fill-opacity:1;stroke:none;stroke-width:0.264583;stroke-opacity:1"
       id="rect3046"
       width="5.0800004"
       height="7.9375"
       x="12.700001"
       y="68.791664"
       rx="0.25399998"
       ry="0.26458305"
       inkscape:label="Switch" />
    <circle
       style="fill:#0000ff;fill-opacity:1;stroke-width:0.4233"
       id="circle3054"
       inkscape:label="Trigger"
       cx="20.955"
       cy="118.43126"
       r="3.1747484" />
    <circle
       style="fill:#ff0000;fill-opacity:1;stroke-width:0.389166"
       id="circle898"
       inkscape:label="BeatsDenominator"
       cx="7.1363163"
       cy="59.429363"
       r="2.9187412" />
    <circle
       style="fill:#ff0000;fill-opacity:1;stroke-width:0.389166"
       id="circle914"
       inkscape:label="MS"
       cx="7.1363163"
       cy="85.955864"
       r="2.9187412" />
  </g>
  <g
     inkscape:groupmode="layer"
     id="layer2"
     inkscape:label="Layer 2"
     style="display:none">
    <text
       xml:space="preserve"
       id="text998"
       style="font-style:normal;font-variant:normal;font-weight:normal;font-stretch:normal;font-size:8.64126px;line-height:1.25;font-family:'Classic Console';-inkscape-font-specification:'Classic Console, Normal';font-variant-ligatures:normal;font-variant-caps:normal;font-variant-numeric:normal;font-variant-east-asian:normal;white-space:pre;shape-inside:url(#rect1002);fill:#16b216;fill-opacity:1;"
       transform="matrix(0.95999988,0,0,1,4.8049725,-7.1876531)"><tspan
         x="12.095703"
         y="38.339463"><tspan
           style="font-style:normal;font-variant:normal;font-weight:normal;font-stretch:normal;font-size:8.64126px;font-family:'Classic Console';-inkscape-font-specification:'Classic Console, Normal';font-variant-ligatures:normal;font-variant-caps:normal;font-variant-numeric:normal;font-variant-east-asian:normal;fill:#16b216;fill-opacity:1">000</tspan></tspan></text>
    <text
       xml:space="preserve"
       id="text3078"
       style="font-style:normal;font-variant:normal;font-weight:normal;font-stretch:normal;font-size:8.64126px;line-height:1.25;font-family:'Classic Console';-inkscape-font-specification:'Classic Console, Normal';font-variant-ligatures:normal;font-variant-caps:normal;font-variant-numeric:normal;font-variant-east-asian:normal;white-space:pre;shape-inside:url(#rect3082);fill:#16b216;fill-opacity:1;"
       transform="matrix(0.95999988,0,0,1,4.8049709,12.656097)"><tspan
         x="12.095703"
         y="38.339463"><tspan
           style="font-style:normal;font-variant:normal;font-weight:normal;font-stretch:normal;font-size:8.64126px;font-family:'Classic Console';-inkscape-font-specification:'Classic Console, Normal';font-variant-ligatures:normal;font-variant-caps:normal;font-variant-numeric:normal;font-variant-east-asian:normal;fill:#16b216;fill-opacity:1">000</tspan></tspan></text>
    <text
       xml:space="preserve"
       id="text3092"
       style="font-style:normal;font-variant:normal;font-weight:normal;font-stretch:normal;font-size:8.64126px;line-height:1.25;font-family:'Classic Console';-inkscape-font-specification:'Classic Console, Normal';font-variant-ligatures:normal;font-variant-caps:normal;font-variant-numeric:normal;font-variant-east-asian:normal;white-space:pre;shape-inside:url(#rect3096);fill:#16b216;fill-opacity:1;"
       transform="matrix(0.95999988,0,0,1,4.8049709,23.23943)"><tspan
         x="12.095703"
         y="38.339463"><tspan
           style="font-style:normal;font-variant:normal;font-weight:normal;font-stretch:normal;font-size:8.64126px;font-family:'Classic Console';-inkscape-font-specification:'Classic Console, Normal';font-variant-ligatures:normal;font-variant-caps:normal;font-variant-numeric:normal;font-variant-east-asian:normal;fill:#16b216;fill-opacity:1">000</tspan></tspan></text>
    <text
       xml:space="preserve"
       id="text908"
       style="font-style:normal;font-variant:normal;font-weight:normal;font-stretch:normal;font-size:8.64126px;line-height:1.25;font-family:'Classic Console';-inkscape-font-specification:'Classic Console, Normal';font-variant-ligatures:normal;font-variant-caps:normal;font-variant-numeric:normal;font-variant-east-asian:normal;white-space:pre;shape-inside:url(#rect912);fill:#16b216;fill-opacity:1;"
       transform="matrix(0.95999988,0,0,1,4.8049709,49.697762)"><tspan
         x="12.095703"
         y="38.339463"><tspan
           style="font-style:normal;font-variant:normal;font-weight:normal;font-stretch:normal;font-size:8.64126px;font-family:'Classic Console';-inkscape-font-specification:'Classic Console, Normal';font-variant-ligatures:normal;font-variant-caps:normal;font-variant-numeric:normal;font-variant-east-asian:normal;fill:#16b216;fill-opacity:1">000</tspan></tspan></text>
  </g>
</svg>
