<?xml version="1.0" encoding="UTF-8" standalone="no"?>
<svg
   xmlns:osb="http://www.openswatchbook.org/uri/2009/osb"
   xmlns:dc="http://purl.org/dc/elements/1.1/"
   xmlns:cc="http://creativecommons.org/ns#"
   xmlns:rdf="http://www.w3.org/1999/02/22-rdf-syntax-ns#"
   xmlns:svg="http://www.w3.org/2000/svg"
   xmlns="http://www.w3.org/2000/svg"
   xmlns:sodipodi="http://sodipodi.sourceforge.net/DTD/sodipodi-0.dtd"
   xmlns:inkscape="http://www.inkscape.org/namespaces/inkscape"
   width="7.8930001mm"
   height="7.8930001mm"
   viewBox="0 0 7.8929999 7.8930002"
   version="1.1"
   id="svg8"
   inkscape:version="1.0.1 (3bc2e813f5, 2020-09-07)"
   sodipodi:docname="KnobSmallDirectional.svg">
  <defs
     id="defs2">
    <marker
       style="overflow:visible"
       id="Arrow1Sstart"
       refX="0"
       refY="0"
       orient="auto"
       inkscape:stockid="Arrow1Sstart"
       inkscape:isstock="true">
      <path
         transform="matrix(0.2,0,0,0.2,1.2,0)"
         style="fill:#ffffff;fill-opacity:1;fill-rule:evenodd;stroke:#000000;stroke-width:1pt;stroke-opacity:1"
         d="M 0,0 5,-5 -12.5,0 5,5 Z"
         id="path2950" />
    </marker>
    <marker
       style="overflow:visible"
       id="Tail"
       refX="0"
       refY="0"
       orient="auto"
       inkscape:stockid="Tail"
       inkscape:isstock="true">
      <g
         transform="scale(-1.2)"
         id="g2986"
         style="fill:#ffffff;fill-opacity:1;stroke:#000000;stroke-opacity:1">
        <path
           style="fill:#ffffff;fill-opacity:1;fill-rule:evenodd;stroke:#000000;stroke-width:0.8;stroke-linecap:round;stroke-opacity:1"
           d="M -3.8048674,-3.9585227 0.54352094,0"
           id="path2974" />
        <path
           style="fill:#ffffff;fill-opacity:1;fill-rule:evenodd;stroke:#000000;stroke-width:0.8;stroke-linecap:round;stroke-opacity:1"
           d="M -1.2866832,-3.9585227 3.0617053,0"
           id="path2976" />
        <path
           style="fill:#ffffff;fill-opacity:1;fill-rule:evenodd;stroke:#000000;stroke-width:0.8;stroke-linecap:round;stroke-opacity:1"
           d="M 1.3053582,-3.9585227 5.6537466,0"
           id="path2978" />
        <path
           style="fill:#ffffff;fill-opacity:1;fill-rule:evenodd;stroke:#000000;stroke-width:0.8;stroke-linecap:round;stroke-opacity:1"
           d="M -3.8048674,4.1775838 0.54352094,0.21974226"
           id="path2980" />
        <path
           style="fill:#ffffff;fill-opacity:1;fill-rule:evenodd;stroke:#000000;stroke-width:0.8;stroke-linecap:round;stroke-opacity:1"
           d="M -1.2866832,4.1775838 3.0617053,0.21974226"
           id="path2982" />
        <path
           style="fill:#ffffff;fill-opacity:1;fill-rule:evenodd;stroke:#000000;stroke-width:0.8;stroke-linecap:round;stroke-opacity:1"
           d="M 1.3053582,4.1775838 5.6537466,0.21974226"
           id="path2984" />
      </g>
    </marker>
    <marker
       style="overflow:visible"
       id="DiamondL"
       refX="0"
       refY="0"
       orient="auto"
       inkscape:stockid="DiamondL"
       inkscape:isstock="true">
      <path
         transform="scale(0.8)"
         style="fill:#ffffff;fill-opacity:1;fill-rule:evenodd;stroke:#000000;stroke-width:1pt;stroke-opacity:1"
         d="M 0,-7.0710768 -7.0710894,0 0,7.0710589 7.0710462,0 Z"
         id="path3017" />
    </marker>
    <marker
       style="overflow:visible"
       id="Arrow2Lstart"
       refX="0"
       refY="0"
       orient="auto"
       inkscape:stockid="Arrow2Lstart"
       inkscape:isstock="true">
      <path
         transform="matrix(1.1,0,0,1.1,1.1,0)"
         d="M 8.7185878,4.0337352 -2.2072895,0.01601326 8.7185884,-4.0017078 c -1.7454984,2.3720609 -1.7354408,5.6174519 -6e-7,8.035443 z"
         style="fill:#ffffff;fill-opacity:1;fill-rule:evenodd;stroke:#000000;stroke-width:0.625;stroke-linejoin:round;stroke-opacity:1"
         id="path2956" />
    </marker>
    <marker
       style="overflow:visible"
       id="Arrow1Lstart"
       refX="0"
       refY="0"
       orient="auto"
       inkscape:stockid="Arrow1Lstart"
       inkscape:isstock="true">
      <path
         transform="matrix(0.8,0,0,0.8,10,0)"
         style="fill:#ffffff;fill-opacity:1;fill-rule:evenodd;stroke:#000000;stroke-width:1pt;stroke-opacity:1"
         d="M 0,0 5,-5 -12.5,0 5,5 Z"
         id="path2938" />
    </marker>
    <linearGradient
       id="linearGradient2900"
       osb:paint="solid">
      <stop
         style="stop-color:#cc801a;stop-opacity:1;"
         offset="0"
         id="stop2898" />
    </linearGradient>
    <linearGradient
       id="linearGradient950"
       osb:paint="solid">
      <stop
         style="stop-color:#000000;stop-opacity:1;"
         offset="0"
         id="stop948" />
    </linearGradient>
    <rect
       x="5.0800004"
       y="2.6458333"
       width="16.952896"
       height="11.259873"
       id="rect3010" />
    <rect
       x="12.095238"
       y="30.238094"
       width="15.119048"
       height="13.229167"
       id="rect841" />
    <rect
       x="13.796131"
       y="31.938988"
       width="18.520832"
       height="7.7485118"
       id="rect835" />
    <rect
       x="12.095238"
       y="30.238094"
       width="15.119048"
       height="13.229167"
       id="rect844" />
    <rect
       x="12.095238"
       y="30.238094"
       width="15.119048"
       height="13.229167"
       id="rect852" />
    <rect
       x="12.095238"
       y="30.238094"
       width="15.119048"
       height="13.229167"
       id="rect886" />
    <rect
       x="12.095238"
       y="30.238094"
       width="15.119048"
       height="13.229167"
       id="rect898" />
    <rect
       x="12.095238"
       y="30.238094"
       width="15.119048"
       height="13.229167"
       id="rect946" />
    <rect
       x="12.095238"
       y="30.238094"
       width="15.119048"
       height="13.229167"
       id="rect960" />
    <rect
       x="12.095238"
       y="30.238094"
       width="15.119048"
       height="13.229167"
       id="rect978" />
    <rect
       x="12.095238"
       y="30.238094"
       width="15.119048"
       height="13.229167"
       id="rect990" />
    <rect
       x="12.095238"
       y="30.238094"
       width="15.119048"
       height="13.229167"
       id="rect1002" />
    <rect
       x="12.095238"
       y="30.238094"
       width="15.119048"
       height="13.229167"
       id="rect2974" />
    <rect
       x="12.095238"
       y="30.238094"
       width="15.119048"
       height="13.229167"
       id="rect2988" />
    <rect
       x="12.095238"
       y="30.238094"
       width="15.119048"
       height="13.229167"
       id="rect3002" />
    <rect
       x="5.0800004"
       y="2.6458333"
       width="21.175196"
       height="14.10025"
       id="rect3018" />
    <rect
       x="5.0800004"
       y="2.6458333"
       width="16.952896"
       height="11.259873"
       id="rect3026" />
    <rect
       x="5.0800004"
       y="2.6458333"
       width="16.952896"
       height="11.259873"
       id="rect3034" />
    <rect
       x="5.0800004"
       y="2.6458333"
       width="16.952896"
       height="11.259873"
       id="rect3042" />
    <rect
       x="5.0800004"
       y="2.6458333"
       width="16.952896"
       height="11.259873"
       id="rect3052" />
    <rect
       x="5.0800004"
       y="2.6458333"
       width="16.952896"
       height="11.259873"
       id="rect3060" />
    <rect
       x="5.0800004"
       y="2.6458333"
       width="36.01067"
       height="16.776888"
       id="rect3066" />
    <rect
       x="12.095238"
       y="30.238094"
       width="15.119048"
       height="13.229167"
       id="rect3082" />
    <rect
       x="12.095238"
       y="30.238094"
       width="15.119048"
       height="13.229167"
       id="rect3096" />
    <rect
       x="12.095238"
       y="30.238094"
       width="15.119048"
       height="13.229167"
       id="rect912" />
  </defs>
  <sodipodi:namedview
     id="base"
     pagecolor="#ffffff"
     bordercolor="#666666"
     borderopacity="1.0"
     inkscape:pageopacity="0.0"
     inkscape:pageshadow="2"
     inkscape:zoom="1.7282043"
     inkscape:cx="-397.61373"
     inkscape:cy="214.53461"
     inkscape:document-units="mm"
     inkscape:current-layer="layer4"
     inkscape:document-rotation="0"
     showgrid="true"
     inkscape:window-width="3440"
     inkscape:window-height="1377"
     inkscape:window-x="-8"
     inkscape:window-y="735"
     inkscape:window-maximized="1"
     inkscape:snap-grids="false">
    <inkscape:grid
       type="xygrid"
       id="grid856"
       units="mm"
       empspacing="5"
       spacingx="0.25400001" />
  </sodipodi:namedview>
  <metadata
     id="metadata5">
    <rdf:RDF>
      <cc:Work
         rdf:about="">
        <dc:format>image/svg+xml</dc:format>
        <dc:type
           rdf:resource="http://purl.org/dc/dcmitype/StillImage" />
        <dc:title />
      </cc:Work>
    </rdf:RDF>
  </metadata>
  <g
     inkscape:groupmode="layer"
     id="layer4"
     inkscape:label="Layer 3"
     style="display:inline">
    <g
       id="g991"
       transform="translate(-1.0429751,-1.0429756)">
      <g
         id="g997">
        <g
           id="g2936"
           transform="matrix(1.359191,0,0,1.359191,-1.7533663,-61.510094)">
          <path
             sodipodi:type="star"
             style="fill:#adadad;fill-opacity:1;stroke:none;stroke-width:0.0550724;stroke-miterlimit:4;stroke-dasharray:none;stroke-opacity:1"
             id="path2904"
             sodipodi:sides="28"
             sodipodi:cx="4.9609227"
             sodipodi:cy="48.925846"
             sodipodi:r1="2.6533561"
             sodipodi:r2="2.9066956"
             sodipodi:arg1="2.4217015"
             sodipodi:arg2="2.5263002"
             inkscape:flatsided="false"
             inkscape:rounded="0.13128056"
             inkscape:randomized="0"
             d="m 2.965924,50.675211 c -0.033641,-0.03778 -0.3497384,-0.0301 -0.3786225,-0.07163 -0.031334,-0.04505 0.06583,-0.368083 0.039371,-0.416161 -0.02439,-0.04432 -0.3342724,-0.107167 -0.3531909,-0.154084 -0.020523,-0.05089 0.1460852,-0.344205 0.1309884,-0.396966 -0.013917,-0.04864 -0.3020447,-0.178863 -0.3100488,-0.228813 -0.00868,-0.05419 0.2190155,-0.303069 0.2160375,-0.357865 -0.00275,-0.05051 -0.2546711,-0.24159 -0.2513596,-0.292069 0.00359,-0.05476 0.2809635,-0.246735 0.2902536,-0.30082 0.00856,-0.04986 -0.1945272,-0.292202 -0.1800662,-0.340679 0.015688,-0.05259 0.3288229,-0.178028 0.3499152,-0.228691 0.019443,-0.0467 -0.1246289,-0.328162 -0.099743,-0.372205 0.026996,-0.04778 0.3601936,-0.100395 0.3920306,-0.145093 0.029348,-0.0412 -0.048481,-0.347668 -0.014419,-0.385069 0.036951,-0.04057 0.3735028,-0.01773 0.4144879,-0.05422 0.037781,-0.03364 0.030098,-0.349738 0.071628,-0.378622 0.045053,-0.03133 0.3680828,0.06583 0.416161,0.03937 0.044319,-0.02439 0.107167,-0.334273 0.1540838,-0.353191 0.050896,-0.02052 0.3442058,0.146085 0.3969662,0.130988 0.048636,-0.01392 0.1788626,-0.302044 0.2288128,-0.310049 0.054187,-0.0087 0.3030689,0.219016 0.3578658,0.216038 0.050513,-0.0027 0.2415895,-0.254671 0.2920684,-0.25136 0.05476,0.0036 0.2467347,0.280964 0.3008205,0.290254 0.049857,0.0086 0.2922019,-0.194527 0.3406784,-0.180066 0.052588,0.01569 0.1780283,0.328823 0.2286908,0.349915 0.046702,0.01944 0.3281622,-0.124629 0.3722053,-0.09974 0.047778,0.027 0.1003948,0.360193 0.1450936,0.39203 0.041204,0.02935 0.3476671,-0.04848 0.3850684,-0.01442 0.040573,0.03695 0.017727,0.373503 0.054221,0.414488 0.033641,0.03778 0.3497385,0.0301 0.3786225,0.07163 0.031334,0.04505 -0.065829,0.368083 -0.039371,0.416161 0.02439,0.04432 0.3342725,0.107167 0.3531909,0.154084 0.020523,0.0509 -0.1460852,0.344206 -0.1309883,0.396966 0.013917,0.04864 0.3020446,0.178863 0.3100488,0.228813 0.00868,0.05419 -0.2190156,0.303069 -0.2160375,0.357866 0.00275,0.05051 0.254671,0.241589 0.2513596,0.292068 -0.00359,0.05476 -0.2809636,0.246735 -0.2902536,0.300821 -0.00856,0.04986 0.1945272,0.292202 0.1800661,0.340678 -0.015687,0.05259 -0.3288229,0.178028 -0.3499152,0.228691 -0.019443,0.0467 0.1246289,0.328162 0.099743,0.372205 -0.026996,0.04778 -0.3601936,0.100395 -0.3920306,0.145094 -0.029348,0.0412 0.048481,0.347667 0.014419,0.385068 -0.036951,0.04057 -0.3735027,0.01773 -0.4144879,0.05422 -0.037781,0.03364 -0.030098,0.349738 -0.071628,0.378622 -0.045053,0.03133 -0.3680829,-0.06583 -0.4161611,-0.03937 -0.044319,0.02439 -0.107167,0.334273 -0.1540837,0.353191 -0.050896,0.02052 -0.3442058,-0.146085 -0.3969662,-0.130988 -0.048636,0.01392 -0.1788627,0.302045 -0.2288129,0.310049 -0.054187,0.0087 -0.3030688,-0.219016 -0.3578658,-0.216038 -0.050513,0.0027 -0.2415894,0.254671 -0.2920684,0.25136 -0.05476,-0.0036 -0.2467347,-0.280964 -0.3008204,-0.290254 -0.049857,-0.0086 -0.292202,0.194527 -0.3406784,0.180066 -0.052588,-0.01569 -0.1780283,-0.328822 -0.2286908,-0.349915 -0.046702,-0.01944 -0.3281622,0.124629 -0.3722054,0.09974 -0.047779,-0.027 -0.1003948,-0.360194 -0.1450935,-0.392031 -0.041204,-0.02935 -0.3476671,0.04848 -0.3850685,0.01442 -0.040573,-0.03695 -0.017727,-0.373503 -0.054221,-0.414488 z"
             inkscape:transform-center-x="-0.28444915"
             inkscape:transform-center-y="-0.17938957" />
          <circle
             style="fill:#ffffff;fill-opacity:1;stroke:#232323;stroke-width:0.180832;stroke-miterlimit:4;stroke-dasharray:none;stroke-dashoffset:0.01;stroke-opacity:1"
             id="path960"
             cx="4.9609227"
             cy="48.925846"
             r="2.3046374" />
        </g>
        <circle
           style="fill:#000000;fill-opacity:1;stroke:none;stroke-width:0.0649999;stroke-dashoffset:0.0377953"
           id="path1009"
           cx="4.9894753"
           cy="4.9894757"
           r="0.54062468" />
        <rect
           style="fill:#000000;fill-opacity:1;stroke:none;stroke-width:0.0649999;stroke-dashoffset:0.0377953"
           id="rect1011"
           width="0.19137144"
           height="1.0665566"
           x="4.8937893"
           y="3.5365276"
           rx="0"
           ry="0" />
      </g>
    </g>
  </g>
</svg>
